<svg xmlns="http://www.w3.org/2000/svg" viewBox="0 0 16.484 16.5"><defs><style>.a{fill:#fff;stroke:#fff;stroke-width:0.5px;fill-rule:evenodd;}</style></defs><path class="a" d="M8.059,6.933A1.111,1.111,0,0,0,6.914,8,1.148,1.148,0,0,0,9.2,8,1.111,1.111,0,0,0,8.059,6.933Zm0,2.667A1.667,1.667,0,0,1,6.341,8,1.667,1.667,0,0,1,8.059,6.4,1.667,1.667,0,0,1,9.777,8,1.667,1.667,0,0,1,8.059,9.6Zm7.129-5.013a2.16,2.16,0,0,0-2.061-1.253,5.592,5.592,0,0,0-1.775.32,20.082,20.082,0,0,1,.143,2.373,24.466,24.466,0,0,1,2.806,1.6c.057-.053.115-.08.172-.133A2.114,2.114,0,0,0,15.188,4.587ZM11.466,9.333A20.851,20.851,0,0,0,13.785,8a20.851,20.851,0,0,0-2.319-1.333V8C11.466,8.453,11.495,8.907,11.466,9.333ZM13.1,12.64a2.119,2.119,0,0,0,2.061-1.253c.6-1.093.372-1.973-.744-2.933-.057-.053-.115-.08-.172-.133a22.231,22.231,0,0,1-2.806,1.6c-.029.853-.057,1.653-.143,2.373A5.529,5.529,0,0,0,13.1,12.64Zm-2.2-6.267c-.515-.24-1.031-.507-1.546-.747C8.889,5.413,8.46,5.2,8.03,5.013c-.429.187-.859.4-1.288.613-.515.24-1.031.507-1.546.747V9.627c.487.24,1.031.507,1.546.747.458.213.888.427,1.288.613.429-.187.859-.4,1.317-.613.515-.24,1.031-.507,1.546-.747V8A15.393,15.393,0,0,0,10.893,6.373Zm-.115-2.507c-.63.24-1.346.533-2.061.853l.916.453c.429.213.859.4,1.26.613C10.865,5.067,10.836,4.427,10.779,3.867ZM8.059.533c-1.632,0-2.348.987-2.634,2.773.83.293,1.689.667,2.634,1.093a26.071,26.071,0,0,1,2.634-1.093C10.378,1.52,9.691.533,8.059.533ZM5.224,5.76c.4-.213.83-.4,1.26-.613L7.4,4.693c-.744-.32-1.432-.64-2.061-.853C5.282,4.427,5.253,5.067,5.224,5.76Zm.115,6.373c.63-.24,1.346-.533,2.061-.853l-.916-.427c-.429-.213-.859-.4-1.26-.613C5.253,10.933,5.282,11.573,5.339,12.133Zm2.72,3.333c1.632,0,2.348-.987,2.634-2.773C9.863,12.4,9,12.027,8.059,11.6a26.072,26.072,0,0,1-2.634,1.093C5.711,14.48,6.427,15.467,8.059,15.467Zm2.835-5.227c-.4.213-.83.4-1.26.613l-.916.427c.744.32,1.432.64,2.061.853C10.836,11.573,10.865,10.933,10.893,10.24Zm-7.9-6.88A2.094,2.094,0,0,0,.93,4.613c-.6,1.093-.372,1.973.744,2.933.057.053.115.08.172.133a22.231,22.231,0,0,1,2.806-1.6c.029-.853.057-1.653.143-2.373A5.272,5.272,0,0,0,2.991,3.36ZM4.623,6.667A20.851,20.851,0,0,0,2.3,8,23.842,23.842,0,0,0,4.623,9.333V6.667ZM.93,11.413a2.187,2.187,0,0,0,2.061,1.253,5.733,5.733,0,0,0,1.775-.32,20.081,20.081,0,0,1-.143-2.373,24.466,24.466,0,0,1-2.806-1.6c-.057.053-.115.08-.172.133C.557,9.44.328,10.32.93,11.413ZM14.7,8c1.26,1.04,1.775,2.187.973,3.653a2.73,2.73,0,0,1-2.577,1.52,6.1,6.1,0,0,1-1.861-.32C10.893,14.773,10.063,16,8.059,16s-2.835-1.227-3.178-3.147a6.243,6.243,0,0,1-1.861.32,2.73,2.73,0,0,1-2.577-1.52C-.359,10.187.157,9.04,1.416,8,.157,6.96-.359,5.813.443,4.347A2.73,2.73,0,0,1,3.02,2.827a6.1,6.1,0,0,1,1.861.32C5.224,1.227,6.055,0,8.059,0s2.835,1.227,3.178,3.147a6.243,6.243,0,0,1,1.861-.32,2.73,2.73,0,0,1,2.577,1.52C16.477,5.813,15.961,6.96,14.7,8Z" transform="translate(0.184 0.25)"/></svg>