<svg xmlns="http://www.w3.org/2000/svg" viewBox="0 0 20.25 20.25"><defs><style>.a{fill:#fff;stroke:#fff;stroke-width:0.25px;fill-rule:evenodd;}</style></defs><path class="a" d="M10,0A9.984,9.984,0,0,0,3.533,17.6l.033.033c.1.1.2.166.3.266l.033.033c.1.067.2.166.3.233l.067.033.3.2.1.067a1.352,1.352,0,0,0,.3.166l.1.067c.1.067.2.1.3.166l.133.067c.1.033.2.1.3.133l.133.067a.67.67,0,0,1,.267.133l.167.067.267.1L6.8,19.5a.786.786,0,0,0,.267.067l.2.067.267.067.233.067c.067.033.167.033.267.067l.233.033c.067,0,.167.033.233.033.1,0,.167.033.267.033.067,0,.133.033.2.033.1,0,.2.033.333.033h1.333a1.253,1.253,0,0,0,.333-.033c.067,0,.133-.033.2-.033.1,0,.167-.033.267-.033.067,0,.167-.033.233-.033l.233-.033.233-.067.233-.067.267-.067.2-.067A.786.786,0,0,1,13.1,19.5l.167-.067.267-.1.167-.067a.671.671,0,0,0,.267-.133l.133-.067c.1-.033.2-.1.3-.133l.133-.067c.1-.067.2-.1.3-.166l.1-.067a1.352,1.352,0,0,1,.3-.166l.1-.067.3-.2.067-.033a1.832,1.832,0,0,0,.3-.233l.067-.033a2.156,2.156,0,0,0,.3-.266L16.4,17.6A9.778,9.778,0,0,0,20,9.983,9.978,9.978,0,0,0,10,0Zm5.667,17.371a4.044,4.044,0,0,1-.467.333l-.167.1c-.133.1-.3.166-.433.266l-.167.1a3.981,3.981,0,0,1-.533.266l-.167.067c-.2.067-.4.166-.6.233l-.167.067c-.2.067-.433.133-.633.2H12.3a4.727,4.727,0,0,1-.667.133l-.133.033a4.525,4.525,0,0,1-.667.067H10.7a2.5,2.5,0,0,1-.7.067,4.932,4.932,0,0,1-.7-.033H9.167a4.007,4.007,0,0,1-.667-.1l-.133-.033C8.133,19.1,7.9,19.035,7.7,19H7.667c-.233-.067-.433-.133-.633-.2L6.9,18.735a4.457,4.457,0,0,1-.6-.233l-.167-.067c-.2-.1-.367-.166-.533-.266l-.167-.1A3.044,3.044,0,0,1,5,17.8l-.167-.1a5.656,5.656,0,0,1-.467-.333L4.233,17.3A7.067,7.067,0,0,1,7.5,15.574l.167-.033.133-.1a2.761,2.761,0,0,0,.767-2.962l-.033-.133-.067-.1A6.948,6.948,0,0,1,7.333,9.717L7.3,9.551l-.1-.133a1.311,1.311,0,0,1-.333-.9,1.191,1.191,0,0,1,.267-.765l.233-.333-.2-.366A1.505,1.505,0,0,1,7,6.156V5.99c0-1.2,1.467-2.329,3-2.329s3,1.131,3,2.329v.166a1.631,1.631,0,0,1-.133.865l-.2.366.233.333a1.332,1.332,0,0,1,.267.765,1.663,1.663,0,0,1-.333.9l-.1.133-.067.133a6.654,6.654,0,0,1-1.133,2.529l-.067.1-.033.133a2.824,2.824,0,0,0,.8,2.962l.133.1.167.033a7.067,7.067,0,0,1,3.267,1.73Zm.633-.5a7.891,7.891,0,0,0-3.633-1.963,2.169,2.169,0,0,1-.567-2.329,7.378,7.378,0,0,0,1.233-2.8,2.1,2.1,0,0,0,.5-1.3,1.99,1.99,0,0,0-.367-1.131,2.626,2.626,0,0,0,.2-1.364c0-1.664-1.833-3-3.667-3s-3.667,1.331-3.667,3a2.626,2.626,0,0,0,.2,1.364,1.99,1.99,0,0,0-.367,1.131,2.1,2.1,0,0,0,.5,1.3,7.378,7.378,0,0,0,1.233,2.8,2.254,2.254,0,0,1-.567,2.329A7.891,7.891,0,0,0,3.7,16.872a9.333,9.333,0,1,1,12.6,0Z" transform="translate(0.125 0.125)"/></svg>