<svg xmlns="http://www.w3.org/2000/svg" xmlns:xlink="http://www.w3.org/1999/xlink" viewBox="0 0 14.171 11.76"><defs><style>.a,.d,.e{fill:none;}.a,.b{stroke:#fff;}.b{fill:#fff;}.c{stroke:none;}.e{clip-path:url(#b);}</style><clipPath id="b"><use xlink:href="#a"/></clipPath></defs><g transform="translate(0.029 0)"><g transform="translate(0.242 1.411)"><line class="a" y2="9.408" transform="translate(4.462)"/><line class="a" y2="9.408" transform="translate(9.166)"/><line class="a" y2="8.964" transform="translate(13.399)"/><line class="a" y2="8.964" transform="translate(0.229)"/><path class="a" d="M0,14" transform="translate(13.87 -3.651)"/><g transform="translate(0 0.471)"><line class="a" x2="13.87"/><line class="a" x2="13.87" transform="translate(0 2.822)"/><line class="a" x2="13.87" transform="translate(0 5.645)"/></g></g><g class="b" transform="translate(0 0)"><path class="c" d="M1,0H13.111a1,1,0,0,1,1,1v.882a0,0,0,0,1,0,0H0a0,0,0,0,1,0,0V1A1,1,0,0,1,1,0Z"/><rect class="d" x="0.5" y="0.5" width="13.111" height="0.882" rx="0.441"/></g><g class="b" transform="translate(14.111 11.289) rotate(180)"><path id="a" class="c" d="M.941,0h12.23a.941.941,0,0,1,.941.941v0a0,0,0,0,1,0,0H0a0,0,0,0,1,0,0v0A.941.941,0,0,1,.941,0Z"/><path class="e" d="M0,0.44076335430145264h14.1114501953125M13.6114501953125,0v0.9407633543014526M14.1114501953125,0.5h-14.1114501953125M0.5,0.9407633543014526v-0.9407633543014526"/></g></g></svg>