<svg xmlns="http://www.w3.org/2000/svg" viewBox="0 0 21.754 21.27"><defs><style>.a{fill:#909090;stroke:#909090;}</style></defs><path class="a" d="M38.033,35.511,31.791,29.27a.418.418,0,0,0-.382-.1l-1.5.446-1.4-1.4,2.133-2.165a3.963,3.963,0,0,0,3.948-1.019,4.07,4.07,0,0,0,1.019-3.948.364.364,0,0,0-.223-.255.651.651,0,0,0-.35,0l-2.388,1.242-.892-.987,1.306-2.229a.438.438,0,0,0,.032-.35.309.309,0,0,0-.255-.223A4.089,4.089,0,0,0,28.894,19.3a3.963,3.963,0,0,0-1.019,3.948l-2.133,2.165L21.92,21.6l.318-.318a.4.4,0,0,0,0-.573l-1.783-1.783a.4.4,0,0,0-.573,0L18.7,20.1a.4.4,0,0,0,0,.573l1.783,1.783a.474.474,0,0,0,.287.127.389.389,0,0,0,.287-.127l.318-.318L25.2,25.958l-7.674,7.674a.409.409,0,0,0-.127.318l.159,2.038a.376.376,0,0,0,.35.35l2.038.159h.032a.389.389,0,0,0,.287-.127L27.939,28.7l1.4,1.4-.446,1.5a.418.418,0,0,0,.1.382l6.273,6.273a.474.474,0,0,0,.287.127.389.389,0,0,0,.287-.127l2.2-2.2a.366.366,0,0,0,0-.541Zm-18.5-15.125.605-.605,1.21,1.21-.573.637Zm.318,15.348-1.528-.127-.127-1.528L28.607,23.665a.386.386,0,0,0,.1-.414,3.235,3.235,0,0,1,3.407-4.3l-1.178,2.006a.386.386,0,0,0,.064.478L32.3,22.869a.446.446,0,0,0,.478.1l2.165-1.146a3.239,3.239,0,0,1-4.3,3.439.386.386,0,0,0-.414.1Zm15.7,1.719-5.827-5.827.382-1.274,1.274-.382L37.2,35.8Z" transform="translate(-16.898 -17.607)"/></svg>